<svg width="82" height="20" viewBox="0 0 82 20" fill="none" xmlns="http://www.w3.org/2000/svg">
<path d="M5.45418 0.561214H7.77186L2.85479 19.0002H0.537109L5.45418 0.561214Z" fill="black"/>
<path d="M14.452 19.0002L9.4325 5.17097H11.7374L15.6172 16.0935L19.4843 5.17097H21.802L16.7825 19.0002H14.452Z" fill="black"/>
<path d="M23.99 2.72524V0.369141H26.2693V2.72524H23.99ZM23.99 19.0002V5.17097H26.2693V19.0002H23.99Z" fill="black"/>
<path d="M36.0784 19.3844C34.7809 19.3844 33.6882 19.0643 32.8004 18.424C31.9126 17.7752 31.2382 16.9002 30.7772 15.799C30.3248 14.6893 30.0986 13.4472 30.0986 12.0728C30.0986 10.6813 30.3248 9.43499 30.7772 8.33377C31.2382 7.23255 31.9126 6.36609 32.8004 5.73438C33.6967 5.10268 34.7937 4.78682 36.0912 4.78682C37.3717 4.78682 38.473 5.10694 39.3949 5.74719C40.3254 6.37889 41.0382 7.24536 41.5333 8.34658C42.0284 9.4478 42.276 10.6899 42.276 12.0728C42.276 13.4557 42.0284 14.6978 41.5333 15.799C41.0382 16.9002 40.3254 17.7752 39.3949 18.424C38.473 19.0643 37.3675 19.3844 36.0784 19.3844ZM29.7144 19.0002V0.561214H32.0065V8.82036H31.7504V19.0002H29.7144ZM35.7967 17.2972C36.7101 17.2972 37.4656 17.0667 38.0632 16.6057C38.6608 16.1447 39.1089 15.5216 39.4077 14.7362C39.7065 13.9423 39.8559 13.0545 39.8559 12.0728C39.8559 11.0996 39.7065 10.2204 39.4077 9.43499C39.1175 8.64963 38.665 8.02646 38.0504 7.56548C37.4443 7.1045 36.6717 6.87402 35.7327 6.87402C34.8364 6.87402 34.0937 7.09597 33.5047 7.53987C32.9156 7.97524 32.476 8.5856 32.1858 9.37097C31.8955 10.1478 31.7504 11.0484 31.7504 12.0728C31.7504 13.0801 31.8912 13.9807 32.173 14.7746C32.4632 15.56 32.9071 16.1789 33.5047 16.6313C34.1022 17.0752 34.8662 17.2972 35.7967 17.2972Z" fill="black"/>
<path d="M54.5459 19.0002V12.0728C54.5459 11.4155 54.4861 10.7838 54.3666 10.1777C54.2556 9.57158 54.055 9.0295 53.7648 8.55146C53.4831 8.06487 53.0989 7.68072 52.6123 7.39902C52.1343 7.11731 51.5282 6.97646 50.794 6.97646C50.2221 6.97646 49.7014 7.07463 49.2318 7.27097C48.7709 7.45877 48.3739 7.74902 48.041 8.1417C47.7081 8.53438 47.4477 9.0295 47.2599 9.62706C47.0806 10.2161 46.991 10.9118 46.991 11.7143L45.4928 11.2533C45.4928 9.91304 45.7318 8.76487 46.2099 7.80877C46.6965 6.84414 47.3751 6.10572 48.2459 5.59353C49.1251 5.0728 50.1581 4.81243 51.3447 4.81243C52.241 4.81243 53.005 4.95329 53.6367 5.23499C54.2684 5.5167 54.7934 5.89231 55.2117 6.36182C55.63 6.8228 55.9587 7.34353 56.1977 7.92402C56.4367 8.49597 56.6032 9.08072 56.6971 9.67828C56.7995 10.2673 56.8507 10.8265 56.8507 11.3557V19.0002H54.5459ZM44.6861 19.0002V0.561214H46.7349V10.7411H46.991V19.0002H44.6861Z" fill="black"/>
<path d="M65.6859 19.3844C64.3115 19.3844 63.1249 19.0728 62.1262 18.4496C61.1359 17.8265 60.3719 16.9643 59.8341 15.863C59.2963 14.7618 59.0274 13.4984 59.0274 12.0728C59.0274 10.6216 59.3005 9.34963 59.8469 8.25694C60.3932 7.16426 61.1658 6.31487 62.1646 5.70877C63.1634 5.09414 64.3371 4.78682 65.6859 4.78682C67.0688 4.78682 68.2597 5.09841 69.2585 5.72158C70.2572 6.33621 71.0213 7.19414 71.5505 8.29536C72.0883 9.38804 72.3572 10.6472 72.3572 12.0728C72.3572 13.5155 72.0883 14.7874 71.5505 15.8886C71.0127 16.9813 70.2444 17.8393 69.2457 18.4624C68.2469 19.0771 67.0603 19.3844 65.6859 19.3844ZM65.6859 17.2204C67.1201 17.2204 68.1871 16.7423 68.8871 15.7862C69.5871 14.8301 69.9371 13.5923 69.9371 12.0728C69.9371 10.5106 69.5829 9.26853 68.8743 8.34658C68.1658 7.41609 67.103 6.95085 65.6859 6.95085C64.7213 6.95085 63.9274 7.16853 63.3042 7.60389C62.681 8.03926 62.2158 8.64109 61.9085 9.40938C61.6012 10.1777 61.4475 11.0655 61.4475 12.0728C61.4475 13.6265 61.806 14.8728 62.5231 15.8118C63.2402 16.7508 64.2944 17.2204 65.6859 17.2204Z" fill="black"/>
<path d="M74.7924 19.0002V5.17097H76.8284V8.51304L76.4954 8.07767C76.6576 7.65085 76.8668 7.25816 77.1229 6.89963C77.3875 6.54109 77.682 6.24658 78.0064 6.01609C78.3649 5.72585 78.7704 5.50389 79.2229 5.35024C79.6753 5.19658 80.1363 5.10694 80.6058 5.08133C81.0753 5.04719 81.5149 5.07707 81.9247 5.17097V7.30938C81.4466 7.18133 80.9216 7.14719 80.3497 7.20694C79.7777 7.2667 79.2485 7.47585 78.7619 7.83438C78.318 8.15024 77.9723 8.53438 77.7247 8.98682C77.4857 9.43926 77.3192 9.93011 77.2253 10.4594C77.1314 10.9801 77.0844 11.5137 77.0844 12.06V19.0002H74.7924Z" fill="black"/>
</svg>
